Pierwsze Urodziny Polo TV 720p 
http://www.imagebam.com/image/887c65193851821
Opis
24.05.2012 w klubie Explosion w Warszawie odby┼éy si─Ö pierwsze urodziny stacji Polo tv.
Dane Techniczne: 
General
Format                                   : MPEG-4
Format profile                           : Base Media / Version 2
Codec ID                                 : mp42
File size                                : 2.93 GiB
Duration                                 : 1h 8mn
Overall bit rate mode                    : Variable
Overall bit rate                         : 6 129 Kbps
Encoded date                             : UTC 2012-06-03 13:12:19
Tagged date                              : UTC 2012-06-03 13:12:19

Video
ID                                       : 2
Format                                   : AVC
Format/Info                              : Advanced Video Codec
Format profile                           : High@L4.0
Format settings, CABAC                   : Yes
Format settings, ReFrames                : 2 frames
Format settings, GOP                     : M=2, N=15
Muxing mode                              : Container profile=Baseline@3.1
Codec ID                                 : avc1
Codec ID/Info                            : Advanced Video Coding
Duration                                 : 1h 8mn
Bit rate mode                            : Variable
Bit rate                                 : 5 996 Kbps
Maximum bit rate                         : 16.0 Mbps
Width                                    : 1 280 pixels
Height                                   : 720 pixels
Display aspect ratio                     : 16:9
Frame rate mode                          : Constant
Frame rate                               : 29.970 fps
Color space                              : YUV
Chroma subsampling                       : 4:2:0
Bit depth                                : 8 bits
Scan type                                : Progressive
Bits/(Pixel*Frame)                       : 0.217
Stream size                              : 2.87 GiB (98%)
Language                                 : English
Encoded date                             : UTC 2012-06-03 13:12:19
Tagged date                              : UTC 2012-06-03 13:12:19

Audio
ID                                       : 1
Format                                   : AAC
Format/Info                              : Advanced Audio Codec
Format profile                           : LC
Codec ID                                 : 40
Duration                                 : 1h 8mn
Bit rate mode                            : Constant
Bit rate                                 : 128 Kbps
Channel(s)                               : 2 channels
Channel positions                        : Front: L R
Sampling rate                            : 48.0 KHz
Compression mode                         : Lossy
Delay relative to video                  : -11ms
Stream size                              : 62.7 MiB (2%)
Encoded date                             : UTC 2012-06-03 13:12:19
Tagged date                              : UTC 2012-06-03 13:12:19